<svg width="64" height="64" xmlns="http://www.w3.org/2000/svg" xmlns:xlink="http://www.w3.org/1999/xlink">
    <defs>
        <linearGradient x1="50%" y1="0%" x2="50%" y2="123.267%" id="c">
            <stop stop-color="#F8F3FF" offset="0%"/>
            <stop stop-color="#EBDEFB" offset="100%"/>
        </linearGradient>
        <linearGradient x1="40.898%" y1="7.602%" x2="56.842%" y2="99.351%" id="d">
            <stop stop-color="#D1ACC0" offset="0%"/>
            <stop stop-color="#D6B4C7" offset="3%"/>
            <stop stop-color="#E5CCDB" offset="14%"/>
            <stop stop-color="#F1DEEA" offset="26%"/>
            <stop stop-color="#F9EBF5" offset="41%"/>
            <stop stop-color="#FEF3FB" offset="60%"/>
            <stop stop-color="#FFF5FD" offset="100%"/>
        </linearGradient>
        <linearGradient x1="58.911%" y1="84.438%" x2="44.535%" y2="15.936%" id="e">
            <stop stop-color="#B22D80" offset="0%"/>
            <stop stop-color="#821C55" offset="100%"/>
        </linearGradient>
        <linearGradient x1="50%" y1="-4.892%" x2="50%" y2="131.944%" id="f">
            <stop stop-color="#F67B9A" offset="0%"/>
            <stop stop-color="#B0006D" offset="100%"/>
        </linearGradient>
        <linearGradient x1="55.098%" y1="81.01%" x2="66.039%" y2="169.88%" id="g">
            <stop stop-color="#D1ACC0" offset="0%"/>
            <stop stop-color="#D6B4C7" offset="3%"/>
            <stop stop-color="#E5CCDB" offset="14%"/>
            <stop stop-color="#F1DEEA" offset="26%"/>
            <stop stop-color="#F9EBF5" offset="41%"/>
            <stop stop-color="#FEF3FB" offset="60%"/>
            <stop stop-color="#FFF5FD" offset="100%"/>
        </linearGradient>
        <linearGradient x1="43.935%" y1="14.075%" x2="56.526%" y2="94.188%" id="h">
            <stop stop-color="#FFF" offset="0%"/>
            <stop stop-color="#D6B4C7" offset="3%"/>
            <stop stop-color="#E5CCDB" offset="14%"/>
            <stop stop-color="#F1DEEA" offset="26%"/>
            <stop stop-color="#F9EBF5" offset="41%"/>
            <stop stop-color="#FEF3FB" offset="55.014%"/>
            <stop stop-color="#FFF" offset="100%"/>
        </linearGradient>
        <linearGradient x1="50%" y1="-4.892%" x2="50%" y2="131.944%" id="i">
            <stop stop-color="#F67B9A" offset="0%"/>
            <stop stop-color="#B0006D" offset="100%"/>
        </linearGradient>
        <linearGradient x1="50%" y1="-4.892%" x2="50%" y2="131.944%" id="j">
            <stop stop-color="#F67B9A" offset="0%"/>
            <stop stop-color="#B0006D" offset="100%"/>
        </linearGradient>
        <linearGradient x1="50%" y1="-1.142%" x2="87.591%" y2="213.795%" id="l">
            <stop stop-color="#B0006D" offset="0%"/>
            <stop stop-color="#F67B9A" offset="100%"/>
        </linearGradient>
        <linearGradient x1="58.228%" y1="-53.989%" x2="58.228%" y2="100%" id="m">
            <stop stop-color="#B0006D" offset="0%"/>
            <stop stop-color="#F67B9A" offset="100%"/>
        </linearGradient>
        <linearGradient x1="50%" y1="-4.892%" x2="50%" y2="131.944%" id="o">
            <stop stop-color="#F67B9A" offset="0%"/>
            <stop stop-color="#B0006D" offset="100%"/>
        </linearGradient>
        <linearGradient x1="41.284%" y1="94.273%" x2="79.768%" y2="50%" id="r">
            <stop stop-color="#00E1CA" offset="0%"/>
            <stop stop-color="#00FFE0" offset="100%"/>
        </linearGradient>
        <linearGradient x1="50%" y1="0%" x2="51.571%" y2="61.361%" id="s">
            <stop stop-color="#FFF" offset="0%"/>
            <stop stop-color="#FFF" stop-opacity="0" offset="100%"/>
        </linearGradient>
        <linearGradient x1="44.771%" y1="-57.234%" x2="50%" y2="93.162%" id="t">
            <stop stop-color="#F67B9A" offset="0%"/>
            <stop stop-color="#B0006D" offset="100%"/>
        </linearGradient>
        <linearGradient x1="56.811%" y1="2.157%" x2="50%" y2="61.06%" id="u">
            <stop stop-color="#F67B9A" offset="0%"/>
            <stop stop-color="#B0006D" offset="100%"/>
        </linearGradient>
        <linearGradient x1="50%" y1="28.638%" x2="44.569%" y2="241.46%" id="v">
            <stop stop-color="#F67B9A" offset="0%"/>
            <stop stop-color="#B0006D" offset="100%"/>
        </linearGradient>
        <linearGradient x1="50%" y1="-4.892%" x2="50%" y2="131.944%" id="w">
            <stop stop-color="#F67B9A" offset="0%"/>
            <stop stop-color="#B0006D" offset="100%"/>
        </linearGradient>
        <linearGradient x1="35.213%" y1="-121.209%" x2="50%" y2="131.944%" id="x">
            <stop stop-color="#F67B9A" offset="0%"/>
            <stop stop-color="#B0006D" offset="100%"/>
        </linearGradient>
        <radialGradient cx="63.189%" cy="47.362%" fx="63.189%" fy="47.362%" r="69.941%" gradientTransform="matrix(.93115 0 0 1 .044 0)" id="k">
            <stop stop-color="#B22D80" offset="0%"/>
            <stop stop-color="#821C55" offset="100%"/>
        </radialGradient>
        <radialGradient cx="55.458%" cy="41.527%" fx="55.458%" fy="41.527%" r="67.965%" gradientTransform="matrix(.90499 0 0 1 .053 0)" id="n">
            <stop stop-color="#FCCFDA" offset="0%"/>
            <stop stop-color="#FACAD5" offset="23%"/>
            <stop stop-color="#F6BAC7" offset="52%"/>
            <stop stop-color="#EEA0B1" offset="84%"/>
            <stop stop-color="#E991A3" offset="100%"/>
        </radialGradient>
        <path id="a" d="M0 0h64v64H0z"/>
        <path id="p" d="M0 0h8.151v8.04H0z"/>
    </defs>
    <g fill="none" fill-rule="evenodd">
        <mask id="b" fill="#fff">
            <use xlink:href="#a"/>
        </mask>
        <g mask="url(#b)">
            <g transform="translate(-4.26)">
                <circle fill="url(#c)" cx="37.491" cy="33.231" r="30.769"/>
                <g transform="scale(-1 1) rotate(3 -106.134 -1245.475)">
                    <path d="M32.397 39.23s4.946 0 5.214 13.314c.052 2.565-.164 3.193-1.216 4.365-4.079 1.48-10.454 2.808-17.94.753-.315-.503-.497-1.001-.512-1.472-.16-4.905 4.024-16.96 4.024-16.96h10.43z" fill="url(#d)" fill-rule="nonzero" transform="matrix(-1 0 0 1 55.557 0)"/>
                    <path d="M48.322 44.65c.642-.144.642-1.47-.607-1.272-2.289.492-2.769.5-2.893-.07-.067-.308 1.071-1.666-.429-1.666-1.125.053-1.607 2.041-2.036 2.31-.14.067-.294.102-.45.105l-.038-.01c-1.044-.248-2.07-.374-3.228.062-.09.034-.283-.43-.377-.43-1.461-.017-2.604.09-2.604.09l-5.212 1.876s-.75 1.584 3.858 3.553c1.153.494 3.367.82 4.421.595.075-.015.643.125.705.108 1.732-.385 2.887-.987 3.778-1.657a2.78 2.78 0 0 1 1.586-.548 7.948 7.948 0 0 0 2.523-.497.891.891 0 0 1 .548-.051c1.888.414 1.843-.553 1.464-1.116 1.24-.79.276-1.65-1.01-1.382z" fill="#FFF" fill-rule="nonzero"/>
                    <path d="M38.058 43.673s-.76 2.647.663 6.486c.325.156.61-.13.703-.263.092-.133-.898-2.637-.643-6.4-.073-.268-.618-.12-.723.177z" fill="url(#e)" fill-rule="nonzero"/>
                    <path d="M31.404 42.048s6.537-1.72 7.34-.967c.804.752 2.036 4.19-4.072 4.943-6.107.752-3.268-3.976-3.268-3.976z" fill="url(#f)"/>
                    <path fill="url(#g)" fill-rule="nonzero" d="m11.862 45.18 2.505 1.905-1.822 1.84-1.043-2.686z"/>
                    <path d="M13.812 46.615s-.731.885-1.541 2.106c-.054.08-.388.25-.429.33-.416.642-1.488 2.107-1.755 2.805.624.611 2.778 2.099 2.778 2.099s1.285.737 2.138 1.154c.411-.315 1.276-1.485 1.738-1.92.056-.052.253-.591.309-.645a25.936 25.936 0 0 0 2.38-2.598c3.08-3.869-1.135-6.59-1.135-6.59l-4.483 3.259z" fill="url(#h)" fill-rule="nonzero"/>
                    <path d="M19.932 48.012c-.285.556-4.453.227-4.875 0-1.393-.753-2.679-2.58-3.054-2.58s-.075 1.789.572 2.84l-.304.449s-1.376-2.392-.82-3.52c.554-1.129 5.142-1.737 5.142-1.737s2.268-1.057 2.66.125c.392 1.182.964 3.348.68 4.423z" fill="url(#i)"/>
                    <path d="M2.33 27.668c-.622-3.614-.322-13.78 5.554-16.03 3.928-1.504 9.98 2.525 15.98 1.307 4.514-.916 5.944-6.297 8.71-6.548-3.66-2.15-8.748-3.01-15.963-1.72C2.038 7.276-1.475 18.612.608 29.104c2.41 12.125 9.552 15.43 17.573 15.415l-2.83-.625S4.758 41.779 2.328 27.668z" fill="url(#j)"/>
                    <path d="M27.825 43.284C46.405 39.2 42.46 24.859 41.477 20.862 40.019 14.978 37.69 9.41 32.58 6.397c-2.767.251-4.949 4.513-9.464 5.439-6 1.219-11.643-2.364-15.572-.86-5.878 2.25-5.83 13.078-5.21 16.692 2.43 14.111 12.859 16.475 12.859 16.475l3 .372c3.138-.013 6.438-.529 9.631-1.231z" fill="#FFF" fill-rule="nonzero"/>
                    <path d="M32.201 7.716s-2.94-3.38-3.656-6.827a.385.385 0 0 1 .116-.357l.448-.43a.38.38 0 0 1 .519 0 30.107 30.107 0 0 1 6.92 9.87c-1.614 0-4.347-2.256-4.347-2.256z" fill="#FFF" fill-rule="nonzero"/>
                    <path d="M9.86 11.692S2.228 4.385 1.356 4.439C.484 4.493-.208 8.307.058 10.832c.533 2.113 3.373 9.564 3.373 9.564l6.429-8.704z" fill="#EDE8EC" fill-rule="nonzero"/>
                    <path d="M3.544 17.209.004 9.386c-.012.483.006.966.054 1.446.357 1.412 1.744 5.21 2.63 7.574l.856-1.197z" fill="#FFF9FF" fill-rule="nonzero"/>
                    <path d="M27.825 43.284C46.405 39.2 42.46 24.859 41.477 20.862c-1.406-5.684-3.629-11.072-8.384-14.15a1.441 1.441 0 0 0-1.239-.158c-2.454.825-4.629 4.448-8.743 5.282-6.001 1.219-11.642-2.364-15.572-.86-5.173 1.969-6.498 10.92-5.638 16.518C4.224 42.61 14.045 43.857 15.093 44.122c.055.015.111.025.167.032l2.816.348c.065.009.13.013.195.013 3.131-.013 6.393-.535 9.554-1.231z" fill="url(#k)" fill-rule="nonzero"/>
                    <path d="M27.825 43.284C46.405 39.2 42.46 24.859 41.477 20.862c-1.406-5.684-3.629-11.072-8.384-14.15a1.441 1.441 0 0 0-1.239-.158c-2.454.825-4.629 4.448-8.743 5.282-6.001 1.219-11.642-2.364-15.572-.86-5.173 1.969-6.498 10.92-5.638 16.518C4.224 42.61 14.045 43.857 15.093 44.122c.055.015.111.025.167.032l2.816.348c.065.009.13.013.195.013 3.131-.013 6.393-.535 9.554-1.231z" fill="url(#l)"/>
                    <path d="M40.114 20.718c-.716-2.865-3.566-10.462-9.001-7.773l-.103.08c.312-.088.64-.102.96-.044 2.214.43 3.57 3.654 5 8.597 1.43 4.943 8.428 15.402-9.423 18.84C9.695 43.859 9.609 36.337 8.537 29.1c-1.07-7.236.573-12.035 3.858-13.037-3.356.86-8.285 3.869-7.143 12.106 1.143 8.238 5.144 18.052 23.43 13.11 18.287-4.943 12.152-17.694 11.432-20.56z" fill="url(#m)"/>
                    <path d="M36.976 21.578c-1.43-4.943-2.786-8.167-5-8.597a2.137 2.137 0 0 0-.96.043c-1.843.48-3.643 3.067-6.399 3.684-3.857.86-8.928-1.648-12.215-.645-3.288 1.004-4.93 5.803-3.858 13.037 1.072 7.233 1.138 14.757 19.003 11.319 17.864-3.439 10.852-13.898 9.43-18.841z" fill="url(#n)" fill-rule="nonzero"/>
                    <path d="M1.356 4.439C.608 4.486-.007 7.299.002 9.687c.405-1.62 1.04-3.484 2.214-4.788-.416-.293-.723-.469-.86-.46zM29.628.106a.38.38 0 0 0-.52 0l-.447.43a.385.385 0 0 0-.116.357c.05.236.112.475.18.711.384-.359.819-.715 1.001-.707.182.009.776.325 1.305.621A24.228 24.228 0 0 0 29.628.106z" fill="#892E60" fill-rule="nonzero"/>
                    <path d="M22.067 25.012c.495-.215-1.127-2.77-4.222-2.98-3.013-.205-5.675 1.289-5.246 5.123-.251.571-.572.322-.607.679-.034.357.963 1.182 1.533.849.57-.333 8.542-3.67 8.542-3.67z" fill="#4B222B" fill-rule="nonzero"/>
                    <ellipse fill="#FFF" fill-rule="nonzero" cx="17.845" cy="26.944" rx="4.713" ry="4.341"/>
                    <path d="M34.563 24.587s1.714-.43 1.714-1.397c0-.443-.285.08-.713-.443-.429-.522-1.631-2.69-3.733-3.14-2.015-.43-4.542.43-4.874 2.437-.332 2.007 7.606 2.543 7.606 2.543z" fill="#4B222B" fill-rule="nonzero"/>
                    <path d="M34.696 22.981c.904 2.252-.015 4.584-2.143 5.444-2.128.86-4.588-.269-5.493-2.519-.904-2.25-.32-4.717 1.852-5.463 2.33-.8 4.88.288 5.784 2.538z" fill="#FFF" fill-rule="nonzero"/>
                    <path d="M32.21 26.733a2.42 2.42 0 0 0 2.417-2.422 2.42 2.42 0 0 0-2.417-2.422 2.42 2.42 0 0 0-2.417 2.422 2.42 2.42 0 0 0 2.417 2.422z" fill="#883F77" fill-rule="nonzero"/>
                    <path d="M32.14 25.796c.809 0 1.465-.626 1.465-1.399s-.656-1.399-1.466-1.399c-.81 0-1.466.626-1.466 1.4 0 .772.657 1.398 1.466 1.398z" fill="#232828" fill-rule="nonzero"/>
                    <path d="M33.17 23.32c.124-.124.078-.371-.103-.551-.18-.18-.427-.225-.55-.1-.124.125-.077.371.103.551.18.18.427.225.55.1z" fill="#FFF6FE" fill-rule="nonzero"/>
                    <ellipse fill="#8E4C82" fill-rule="nonzero" cx="19.355" cy="26.698" rx="2.484" ry="2.517"/>
                    <ellipse fill="#232828" fill-rule="nonzero" cx="19.48" cy="26.789" rx="1.507" ry="1.455"/>
                    <circle fill="#FFF6FE" fill-rule="nonzero" transform="rotate(-44.27 20.153 25.887)" cx="20.153" cy="25.887" r="1"/>
                    <path d="M27.67 17.318c.04.443 1.126-.395 1.782-.5.656-.106 2.312.13 2.443-.157.13-.288-.285-1.449-1.089-1.528-.803-.08-3.26.737-3.135 2.185zM13.145 19.951c.23.645 1.878-.5 2.698-.527.821-.025 1.74.37 2.16 0 .42-.37-.289-1.738-2.43-1.528-2.14.211-2.743 1.187-2.428 2.055z" fill="#302E2B" fill-rule="nonzero"/>
                    <path d="M20.443 32.588c.032-.365 3.331.25 5.876-.232 2.544-.481 4.055-1.57 4.484-1.357.43.213.605 5.145-3.357 6.032-4.44.993-7.126-3-7.003-4.443z" fill="#50081C" fill-rule="nonzero"/>
                    <path d="M30.031 32.103c.203-.302.131-.72.057-.98-.756.284-2.014.902-3.765 1.234-2.544.481-5.844-.133-5.875.231-.01.195.013.39.067.578 1.958.376 3.97.38 5.93.011 3.427-.66 3.267-.606 3.586-1.074z" fill="#FFEAF0" fill-rule="nonzero"/>
                    <path d="M22.03 34.258s1.666.241 2.55.062c.883-.179 1.393-.517 2.056-.361.664.155 1.718.551 1.982 1.363.453 1.392-4.798 2.837-6.587-1.064z" fill="#822D4A" fill-rule="nonzero"/>
                    <path d="M12.384 48.549s3.684.909 4.97 4.206c-.053.356-.452.43-.613.43-.16 0-.73-2.633-4.91-4.138-.18-.21.251-.58.553-.498z" fill="url(#o)"/>
                    <path d="M26.949 44.515c4.837-.443 5.825 2.287 6.448 4.715.624 2.429.609 6.662-4.558 6.662s-4.286-2.149-4.974-5.029c-.688-2.88-1.659-5.905 3.084-6.348z" fill="#C40A6C" fill-rule="nonzero"/>
                    <g transform="matrix(-1 0 0 1 32.69 46.007)">
                        <mask id="q" fill="#fff">
                            <use xlink:href="#p"/>
                        </mask>
                        <path d="M7.204 1.845c-.048.431-.528.883-.94.846-.32-.029-.593-.379-.5-.832.093-.462.496-.86.907-.866.365-.005.669.364.533.852M6.31 6.229c-.061.464-.494.834-.891.796-.396-.037-.642-.418-.516-.93.113-.458.488-.775.857-.768.38.007.68.38.55.902M6.866.004C6.022-.01 5.134.89 4.936 1.86c-.197.968.328 1.8 1.127 1.83.914.036 1.838-.842 2.048-1.882C8.309.82 7.759-.07 6.866.004m-.895 4.33c-.847-.03-1.745.79-1.914 1.865-.15.952.313 1.745 1.135 1.833.89.095 1.821-.71 2.021-1.832.175-.983-.364-1.854-1.242-1.866M1.038 2.433l-.214 1.05c-.02.102-.016.113.062.115l.623.01c.089.002.093-.003.117-.117l.334-1.638.1-.492a.31.31 0 0 1 .184-.23c.08-.036.158-.046.22.01.075.068.07.177.046.292-.112.56-.227 1.118-.341 1.677-.028.139-.057.276-.083.414-.015.085-.008.093.058.095l.627.01c.11.002.116-.004.14-.144l.011-.062.408-2.002a.56.56 0 0 1 .08-.198c.073-.114.202-.178.305-.15.097.027.151.138.128.264-.042.227-.084.453-.129.68-.077.392-.176.785-.25 1.178-.02.113-.04.226-.063.34-.02.1-.02.104.064.105l.665.011c.093.001.107-.013.13-.124.144-.703.288-1.406.43-2.109.035-.178.058-.357.039-.522a.978.978 0 0 0-.212-.502.73.73 0 0 0-.196-.16.664.664 0 0 0-.373-.115 6.186 6.186 0 0 0-.228.01c-.036.002-.072 0-.108.014a1.657 1.657 0 0 0-.425.212c-.02.014-.041.029-.06.017-.028-.016-.059-.03-.083-.052a.538.538 0 0 0-.317-.143 1.096 1.096 0 0 0-.502.048c-.106.04-.204.099-.303.163-.16.104-.294.255-.414.425a1.445 1.445 0 0 0-.152.282c-.041.1-.087.2-.108.307-.068.343-.14.687-.21 1.03M.223 6.43.012 7.473c-.023.112-.015.13.07.137l.563.047c.13.01.13.01.164-.157l.422-2.07c.04-.192.203-.33.36-.259.071.032.11.106.105.22-.005.098-.03.192-.05.288l-.364 1.787-.03.149c-.012.06.004.093.054.097.219.018.44.036.662.056.048.004.076-.021.086-.082l.012-.055c.138-.681.278-1.362.415-2.043a.796.796 0 0 1 .088-.232c.055-.099.2-.188.295-.138.115.06.157.152.124.32-.052.259-.107.518-.158.777-.08.4-.158.8-.236 1.2-.013.071-.04.141-.048.214-.007.064.009.09.06.093.143.01.286.024.43.036l.244.02c.07.004.094-.02.11-.103.011-.054.026-.107.037-.161.139-.675.278-1.35.412-2.025.024-.118.044-.242.04-.356a1.08 1.08 0 0 0-.224-.651 1.127 1.127 0 0 0-.258-.226c-.069-.047-.15-.054-.225-.078a.692.692 0 0 0-.339-.016c-.16.029-.319.087-.471.194-.04.027-.075.02-.105-.002a.7.7 0 0 1-.078-.065c-.106-.103-.24-.14-.378-.163a.94.94 0 0 0-.444.05 1.505 1.505 0 0 0-.357.203 1.54 1.54 0 0 0-.469.626 2.086 2.086 0 0 0-.13.452c-.054.29-.117.581-.177.872" fill="#FFF" mask="url(#q)"/>
                    </g>
                </g>
                <path d="M12.118 53.79a.356.356 0 0 1-.33-.221c-.701-1.699-1.218-2.217-2.911-2.92a.357.357 0 0 1 0-.661c1.693-.704 2.21-1.222 2.911-2.92a.356.356 0 0 1 .659 0c.701 1.698 1.218 2.216 2.912 2.92a.357.357 0 0 1 0 .66c-1.694.704-2.21 1.222-2.912 2.92a.356.356 0 0 1-.33.221z" fill="url(#r)" fill-rule="nonzero"/>
                <path d="M47.024 6.778a.348.348 0 0 1-.321-.215c-.685-1.658-1.19-2.165-2.843-2.851a.349.349 0 0 1 0-.645c1.653-.687 2.158-1.193 2.843-2.852a.348.348 0 0 1 .643 0c.685 1.659 1.19 2.165 2.843 2.852a.349.349 0 0 1 0 .645c-1.654.686-2.158 1.193-2.843 2.85a.348.348 0 0 1-.322.216z" fill="#FFD00D" fill-rule="nonzero"/>
                <path d="M19.525 38.483c-.162-.441-2.845-6.124-8.048-17.048H7.44L0 48.215c.549.15 19.179 24.688 19.525-9.732z" fill="url(#s)" transform="rotate(-12 30.622 3.219)"/>
                <path d="M4.54 12.554c0-.523.02-1.045.056-1.563-1.538.87-2.599 2.805-2.599 5.047 0 1.183.294 2.312.85 3.264a.283.283 0 0 0 .35.12 6.21 6.21 0 0 1 2.319-.46c-.639-1.97-.976-4.171-.976-6.408zM14.32 10.991c.036.518.055 1.04.055 1.563 0 2.237-.336 4.438-.975 6.409a6.21 6.21 0 0 1 2.318.459.281.281 0 0 0 .351-.12c.556-.952.85-2.08.85-3.264 0-2.242-1.06-4.178-2.6-5.047z" fill="url(#t)" fill-rule="nonzero" transform="rotate(-12 30.622 3.219)"/>
                <path d="M7.009 19.7v1.478c0 .177.144.321.32.321h4.258c.176 0 .32-.144.32-.32v-1.48H7.009z" fill="url(#u)" fill-rule="nonzero" transform="rotate(-12 30.622 3.219)"/>
                <path d="M13.35 5.793H5.566c-.714 2.063-1.09 4.384-1.09 6.76 0 2.472.409 4.9 1.182 7.024.04.112.147.187.266.187h7.068a.283.283 0 0 0 .266-.187c.773-2.124 1.181-4.552 1.181-7.023 0-2.377-.376-4.698-1.09-6.76z" fill="url(#v)" fill-rule="nonzero" transform="rotate(-12 30.622 3.219)"/>
                <path d="M9.458 0c.063 0 .126.021.178.063 1.429 1.16 2.632 2.92 3.48 5.09l.131.35.125.354h-2.071v1a.322.322 0 0 1-.268.317l-.052.004H7.934a.321.321 0 0 1-.315-.269l-.004-.051v-1H5.543c.04-.12.082-.238.124-.355l.132-.35c.848-2.17 2.051-3.93 3.48-5.09A.282.282 0 0 1 9.458 0z" fill="url(#w)" fill-rule="nonzero" transform="rotate(-12 30.622 3.219)"/>
                <path d="M9.458 14.878a3.268 3.268 0 0 0 3.263-3.273 3.268 3.268 0 0 0-3.263-3.272 3.268 3.268 0 0 0-3.263 3.272 3.268 3.268 0 0 0 3.263 3.273z" fill="url(#x)" fill-rule="nonzero" transform="rotate(-12 30.622 3.219)"/>
                <path d="M12.1 17.876a2.096 2.096 0 0 0 1.612-2.489 2.096 2.096 0 0 0-2.484-1.618 2.096 2.096 0 0 0-1.612 2.488 2.096 2.096 0 0 0 2.485 1.619z" fill="#FFF" fill-rule="nonzero"/>
            </g>
        </g>
    </g>
</svg>
